# xmcd
#
# Track frame offsets: 
#        150
#        15622
#        30734
#        46315
#        68586
#        89869
#        113474
#        132077
#        152877
#        175777
#        193369
#
# Disc length: 2876 seconds
#
# Revision: 2
# Processed by: cddbd v1.5.2PL0 Copyright (c) Steve Scherf et al.
# Submitted via: ExactAudioCopy v1.0b3
#
DISCID=8f0b3a0b
DTITLE=Zucchero Sugar Fornaciari - Shake
DYEAR=2001
DGENRE=Blues
TTITLE0=Sento le campane
TTITLE1=Music in me
TTITLE2=Porca l'oca
TTITLE3=Ali d'oro (with John Lee Hooker)
TTITLE4=Ahum
TTITLE5=Scintille
TTITLE6=Baila (sexy thing)
TTITLE7=Dindondio
TTITLE8=Rossa mela della sera
TTITLE9=Shake
TTITLE10=Tobia
EXTD=
EXTT0=
EXTT1=
EXTT2=
EXTT3=
EXTT4=
EXTT5=
EXTT6=
EXTT7=
EXTT8=
EXTT9=
EXTT10=
PLAYORDER=
